<svg height="512pt" viewBox="0 -56 512 512" width="512pt" xmlns="http://www.w3.org/2000/svg"><path d="m456 180h-400c-8.285156 0-15-6.714844-15-15 0-44.902344 22.933594-86.832031 64.578125-118.066406 40.355469-30.265625 93.777344-46.933594 150.421875-46.933594s110.066406 16.667969 150.421875 46.933594c41.644531 31.234375 64.578125 73.164062 64.578125 118.066406 0 8.285156-6.714844 15-15 15zm0 0" fill="#fbd898"/><path d="m456 180c8.285156 0 15-6.714844 15-15 0-44.902344-22.933594-86.832031-64.578125-118.066406-40.355469-30.265625-93.777344-46.933594-150.421875-46.933594v180zm0 0" fill="#fac86f"/><path d="m436 340h-360c-6.882812 0-12.882812-4.683594-14.550781-11.363281l-20-80c-1.121094-4.480469-.113281-9.226563 2.726562-12.867188 2.84375-3.640625 7.207031-5.769531 11.824219-5.769531h400c4.617188 0 8.980469 2.128906 11.824219 5.769531 2.839843 3.640625 3.847656 8.386719 2.726562 12.867188l-20 80c-1.667969 6.679687-7.667969 11.363281-14.550781 11.363281zm0 0" fill="#f0820a"/><path d="m256 125c-8.285156 0-15-6.714844-15-15v-40c0-8.285156 6.714844-15 15-15s15 6.714844 15 15v40c0 8.285156-6.714844 15-15 15zm0 0" fill="#faa01b"/><path d="m346.011719 125c-4.5625 0-9.0625-2.070312-12.011719-6l-30-40c-4.972656-6.628906-3.628906-16.027344 3-21 6.628906-4.96875 16.027344-3.628906 21 3l30 40c4.972656 6.628906 3.628906 16.027344-3 21-2.699219 2.023438-5.855469 3-8.988281 3zm0 0" fill="#f08c14"/><path d="m165.988281 125c-3.132812 0-6.289062-.976562-8.988281-3-6.628906-4.972656-7.972656-14.371094-3-21l30-40c4.96875-6.625 14.375-7.96875 21-3 6.628906 4.972656 7.972656 14.371094 3 21l-30 40c-2.945312 3.929688-7.449219 6-12.011719 6zm0 0" fill="#faa01b"/><path d="m456 230h-200v110h180c6.882812 0 12.882812-4.683594 14.550781-11.363281l20-80c1.121094-4.480469.113281-9.226563-2.726562-12.867188-2.84375-3.640625-7.207031-5.769531-11.824219-5.769531zm0 0" fill="#dc6e00"/><path d="m271 110v-40c0-8.285156-6.714844-15-15-15v70c8.285156 0 15-6.714844 15-15zm0 0" fill="#f08c14"/><path d="m437 400h-362c-41.355469 0-75-33.644531-75-75 0-8.285156 6.714844-15 15-15h482c8.285156 0 15 6.714844 15 15 0 41.355469-33.644531 75-75 75zm0 0" fill="#8ee4ed"/><path d="m497 310h-241v90h181c41.355469 0 75-33.644531 75-75 0-8.285156-6.714844-15-15-15zm0 0" fill="#32d2e6"/><path d="m456 260c-15.746094 0-29.964844-6.648438-40-17.289062-10.035156 10.640624-24.253906 17.289062-40 17.289062s-29.964844-6.648438-40-17.289062c-10.035156 10.640624-24.253906 17.289062-40 17.289062s-29.964844-6.648438-40-17.289062c-10.035156 10.640624-24.253906 17.289062-40 17.289062s-29.964844-6.648438-40-17.289062c-10.035156 10.640624-24.253906 17.289062-40 17.289062s-29.964844-6.648438-40-17.289062c-10.035156 10.640624-24.253906 17.289062-40 17.289062-30.328125 0-55-24.671875-55-55s24.671875-55 55-55h400c30.328125 0 55 24.671875 55 55s-24.671875 55-55 55zm0 0" fill="#ffb43c"/><path d="m456 150h-200v92.710938c10.035156 10.640624 24.253906 17.289062 40 17.289062s29.964844-6.648438 40-17.289062c10.035156 10.640624 24.253906 17.289062 40 17.289062s29.964844-6.648438 40-17.289062c10.035156 10.640624 24.253906 17.289062 40 17.289062 30.328125 0 55-24.671875 55-55s-24.671875-55-55-55zm0 0" fill="#faa01b"/></svg>